<svg xmlns="http://www.w3.org/2000/svg" viewBox="0 0 900 650" role="img" aria-labelledby="title desc" preserveAspectRatio="xMidYMid slice">
<title id="title">Almond croissant</title><desc id="desc">Illustrated bakery item</desc>
<defs>
  <linearGradient id="bg" x1="0" y1="0" x2="1" y2="1"><stop stop-color="#8b4e23"/><stop offset="1" stop-color="#f7d79a"/></linearGradient>
  <filter id="shadow" x="-25%" y="-25%" width="150%" height="150%"><feDropShadow dx="0" dy="18" stdDeviation="14" flood-color="#21100b" flood-opacity=".34"/></filter>
  <radialGradient id="shine" cx="35%" cy="22%" r="80%"><stop stop-color="#fff7d6" stop-opacity=".55"/><stop offset="1" stop-color="#fff7d6" stop-opacity="0"/></radialGradient>
</defs>
<rect width="900" height="650" rx="42" fill="url(#bg)"/>
<rect width="900" height="650" rx="42" fill="url(#shine)"/>
<g opacity=".16" fill="#fff4d5"><circle cx="90" cy="105" r="12"/><circle cx="195" cy="82" r="7"/><circle cx="755" cy="98" r="14"/><circle cx="825" cy="510" r="9"/><circle cx="108" cy="556" r="8"/></g>

<g filter="url(#shadow)">
 <ellipse cx="450" cy="494" rx="285" ry="48" fill="#3d1d10" opacity=".3"/>
 <path d="M180 410 Q212 170 444 244 Q670 165 734 410 Q612 458 451 425 Q286 456 180 410Z" fill="#ce7a30"/>
 <path d="M224 385 Q285 210 383 300M316 421 Q383 219 454 280M430 425 Q488 220 555 300M554 412 Q606 245 666 373" fill="none" stroke="#f4c26f" stroke-width="30" stroke-linecap="round"/>
 <g fill="#fff0c3"><ellipse cx="273" cy="316" rx="30" ry="12" transform="rotate(-20 273 316)"/><ellipse cx="378" cy="270" rx="30" ry="12" transform="rotate(21 378 270)"/><ellipse cx="489" cy="266" rx="30" ry="12" transform="rotate(-15 489 266)"/><ellipse cx="602" cy="310" rx="30" ry="12" transform="rotate(23 602 310)"/></g>
</g>
</svg>