<svg xmlns="http://www.w3.org/2000/svg" viewBox="0 0 800 480" role="img" aria-label="Adobo Cuts">
      <defs>
        <linearGradient id="bg" x1="0" x2="1" y1="0" y2="1">
          <stop offset="0%" stop-color="#fff4df"/>
          <stop offset="100%" stop-color="#f7dca4"/>
        </linearGradient>
        <filter id="shadow" x="-20%" y="-20%" width="140%" height="140%">
          <feDropShadow dx="0" dy="15" stdDeviation="13" flood-color="#5a251b" flood-opacity=".25"/>
        </filter>
      </defs>
      <rect width="800" height="480" rx="34" fill="url(#bg)"/>
      <circle cx="91" cy="80" r="12" fill="#fff" opacity=".32"/>
      <circle cx="698" cy="89" r="18" fill="#fff" opacity=".28"/>
      <circle cx="733" cy="400" r="10" fill="#fff" opacity=".3"/>
      <rect x="74" y="50" width="652" height="380" rx="27" fill="#fffdf6" filter="url(#shadow)"/>
      <rect x="74" y="50" width="652" height="89" rx="27" fill="#c8102e"/>
      <rect x="74" y="110" width="652" height="29" fill="#c8102e"/>
      <text x="400" y="91" text-anchor="middle" font-family="Arial, Helvetica, sans-serif" font-size="31" font-weight="800" fill="#fff">BOUNTY FRESH</text>
      <text x="400" y="124" text-anchor="middle" font-family="Arial, Helvetica, sans-serif" font-size="13" font-weight="700" letter-spacing="2" fill="#ffe278">READY FOR ADOBO</text>
      <g filter="url(#shadow)">
        <rect x="292" y="196" width="215" height="147" rx="34" fill="#fff0bf"/>
        <path d="M324 286 C331 244 367 220 402 238 C436 213 478 241 480 282 C482 319 441 327 403 310 C362 328 320 319 324 286Z" fill="#854320"/>
        <circle cx="353" cy="266" r="10" fill="#e2b155"/><circle cx="433" cy="263" r="10" fill="#e2b155"/>
        <path d="M351 307 Q402 280 453 306" fill="none" stroke="#b96b32" stroke-width="9" stroke-linecap="round"/>
        </g>
      <text x="400" y="374" text-anchor="middle" font-family="Arial, Helvetica, sans-serif" font-size="31" font-weight="800" fill="#51190f">Adobo Cuts</text>
      <text x="400" y="404" text-anchor="middle" font-family="Arial, Helvetica, sans-serif" font-size="15" font-weight="600" fill="#7a4e36">Chicken Cut-Ups</text>
    </svg>