<svg xmlns="http://www.w3.org/2000/svg" viewBox="0 0 800 480" role="img" aria-label="Chicken Tapa">
      <defs>
        <linearGradient id="bg" x1="0" x2="1" y1="0" y2="1">
          <stop offset="0%" stop-color="#fff4df"/>
          <stop offset="100%" stop-color="#f7dca4"/>
        </linearGradient>
        <filter id="shadow" x="-20%" y="-20%" width="140%" height="140%">
          <feDropShadow dx="0" dy="15" stdDeviation="13" flood-color="#5a251b" flood-opacity=".25"/>
        </filter>
      </defs>
      <rect width="800" height="480" rx="34" fill="url(#bg)"/>
      <circle cx="91" cy="80" r="12" fill="#fff" opacity=".32"/>
      <circle cx="698" cy="89" r="18" fill="#fff" opacity=".28"/>
      <circle cx="733" cy="400" r="10" fill="#fff" opacity=".3"/>
      <rect x="74" y="50" width="652" height="380" rx="27" fill="#fffdf6" filter="url(#shadow)"/>
      <rect x="74" y="50" width="652" height="89" rx="27" fill="#c8102e"/>
      <rect x="74" y="110" width="652" height="29" fill="#c8102e"/>
      <text x="400" y="91" text-anchor="middle" font-family="Arial, Helvetica, sans-serif" font-size="31" font-weight="800" fill="#fff">BOUNTY FRESH</text>
      <text x="400" y="124" text-anchor="middle" font-family="Arial, Helvetica, sans-serif" font-size="13" font-weight="700" letter-spacing="2" fill="#ffe278">BAON FAVE</text>
      <g filter="url(#shadow)">
        <ellipse cx="400" cy="270" rx="132" ry="63" fill="#fff4d8"/>
        <path d="M309 273 C324 211 374 197 411 228 C445 202 493 219 500 271 C507 320 447 334 406 314 C365 336 300 323 309 273Z" fill="#9a4d2a"/>
        <path d="M327 264 Q369 235 394 266" fill="none" stroke="#d78542" stroke-width="10" stroke-linecap="round"/>
        <path d="M421 256 Q455 236 487 268" fill="none" stroke="#d78542" stroke-width="10" stroke-linecap="round"/>
        <circle cx="363" cy="290" r="4" fill="#ffd474"/><circle cx="457" cy="292" r="4" fill="#ffd474"/>
        </g>
      <text x="400" y="374" text-anchor="middle" font-family="Arial, Helvetica, sans-serif" font-size="31" font-weight="800" fill="#51190f">Chicken Tapa</text>
      <text x="400" y="404" text-anchor="middle" font-family="Arial, Helvetica, sans-serif" font-size="15" font-weight="600" fill="#7a4e36">Breakfast favorite</text>
    </svg>