<svg xmlns="http://www.w3.org/2000/svg" viewBox="0 0 800 480" role="img" aria-label="Chicken Nuggets">
      <defs>
        <linearGradient id="bg" x1="0" x2="1" y1="0" y2="1">
          <stop offset="0%" stop-color="#fff4df"/>
          <stop offset="100%" stop-color="#f7dca4"/>
        </linearGradient>
        <filter id="shadow" x="-20%" y="-20%" width="140%" height="140%">
          <feDropShadow dx="0" dy="15" stdDeviation="13" flood-color="#5a251b" flood-opacity=".25"/>
        </filter>
      </defs>
      <rect width="800" height="480" rx="34" fill="url(#bg)"/>
      <circle cx="91" cy="80" r="12" fill="#fff" opacity=".32"/>
      <circle cx="698" cy="89" r="18" fill="#fff" opacity=".28"/>
      <circle cx="733" cy="400" r="10" fill="#fff" opacity=".3"/>
      <rect x="74" y="50" width="652" height="380" rx="27" fill="#fffdf6" filter="url(#shadow)"/>
      <rect x="74" y="50" width="652" height="89" rx="27" fill="#c8102e"/>
      <rect x="74" y="110" width="652" height="29" fill="#c8102e"/>
      <text x="400" y="91" text-anchor="middle" font-family="Arial, Helvetica, sans-serif" font-size="31" font-weight="800" fill="#fff">BOUNTY FRESH</text>
      <text x="400" y="124" text-anchor="middle" font-family="Arial, Helvetica, sans-serif" font-size="13" font-weight="700" letter-spacing="2" fill="#ffe278">KID FRIENDLY</text>
      <g filter="url(#shadow)">
        <rect x="281" y="198" width="238" height="143" rx="26" fill="#fff0bd"/>
        <rect x="303" y="235" width="74" height="55" rx="22" fill="#edaa3f" transform="rotate(-11 340 262)"/>
        <rect x="384" y="220" width="74" height="55" rx="22" fill="#f0b856" transform="rotate(13 421 247)"/>
        <rect x="421" y="269" width="72" height="52" rx="21" fill="#e79931" transform="rotate(-9 457 295)"/>
        <circle cx="335" cy="260" r="4" fill="#be702c"/><circle cx="429" cy="245" r="4" fill="#be702c"/><circle cx="462" cy="290" r="4" fill="#be702c"/>
        </g>
      <text x="400" y="374" text-anchor="middle" font-family="Arial, Helvetica, sans-serif" font-size="31" font-weight="800" fill="#51190f">Chicken Nuggets</text>
      <text x="400" y="404" text-anchor="middle" font-family="Arial, Helvetica, sans-serif" font-size="15" font-weight="600" fill="#7a4e36">Easy merienda</text>
    </svg>