<svg xmlns="http://www.w3.org/2000/svg" viewBox="0 0 900 650" role="img" aria-labelledby="title desc" preserveAspectRatio="xMidYMid slice">
<title id="title">Chocolate hazelnut cake</title><desc id="desc">Illustrated bakery item</desc>
<defs>
  <linearGradient id="bg" x1="0" y1="0" x2="1" y2="1"><stop stop-color="#5c2d1b"/><stop offset="1" stop-color="#e1ad6a"/></linearGradient>
  <filter id="shadow" x="-25%" y="-25%" width="150%" height="150%"><feDropShadow dx="0" dy="18" stdDeviation="14" flood-color="#21100b" flood-opacity=".34"/></filter>
  <radialGradient id="shine" cx="35%" cy="22%" r="80%"><stop stop-color="#fff7d6" stop-opacity=".55"/><stop offset="1" stop-color="#fff7d6" stop-opacity="0"/></radialGradient>
</defs>
<rect width="900" height="650" rx="42" fill="url(#bg)"/>
<rect width="900" height="650" rx="42" fill="url(#shine)"/>
<g opacity=".16" fill="#fff4d5"><circle cx="90" cy="105" r="12"/><circle cx="195" cy="82" r="7"/><circle cx="755" cy="98" r="14"/><circle cx="825" cy="510" r="9"/><circle cx="108" cy="556" r="8"/></g>

<g filter="url(#shadow)">
 <ellipse cx="446" cy="508" rx="270" ry="45" fill="#2b140e" opacity=".35"/>
 <path d="M212 244 Q450 175 690 244 L645 447 Q454 500 254 448Z" fill="#a85e31"/>
 <path d="M226 257 Q450 190 676 257 L664 308 Q456 363 236 309Z" fill="#f5ca80"/>
 <path d="M254 367 Q438 420 644 360 L634 410 Q450 470 268 415Z" fill="#522516"/>
 <path d="M245 324 Q456 385 655 316" fill="none" stroke="#37150d" stroke-width="35"/>
 <g fill="#e4ae5a"><ellipse cx="320" cy="242" rx="24" ry="16" transform="rotate(-25 320 242)"/><ellipse cx="396" cy="222" rx="23" ry="15" transform="rotate(12 396 222)"/><ellipse cx="482" cy="231" rx="23" ry="15" transform="rotate(-11 482 231)"/><ellipse cx="560" cy="238" rx="24" ry="16" transform="rotate(25 560 238)"/></g>
</g>
</svg>