<svg xmlns="http://www.w3.org/2000/svg" viewBox="0 0 900 650" role="img" aria-labelledby="title desc" preserveAspectRatio="xMidYMid slice">
<title id="title">Focaccia bread</title><desc id="desc">Illustrated bakery item</desc>
<defs>
  <linearGradient id="bg" x1="0" y1="0" x2="1" y2="1"><stop stop-color="#65824a"/><stop offset="1" stop-color="#e5c16e"/></linearGradient>
  <filter id="shadow" x="-25%" y="-25%" width="150%" height="150%"><feDropShadow dx="0" dy="18" stdDeviation="14" flood-color="#21100b" flood-opacity=".34"/></filter>
  <radialGradient id="shine" cx="35%" cy="22%" r="80%"><stop stop-color="#fff7d6" stop-opacity=".55"/><stop offset="1" stop-color="#fff7d6" stop-opacity="0"/></radialGradient>
</defs>
<rect width="900" height="650" rx="42" fill="url(#bg)"/>
<rect width="900" height="650" rx="42" fill="url(#shine)"/>
<g opacity=".16" fill="#fff4d5"><circle cx="90" cy="105" r="12"/><circle cx="195" cy="82" r="7"/><circle cx="755" cy="98" r="14"/><circle cx="825" cy="510" r="9"/><circle cx="108" cy="556" r="8"/></g>

<g filter="url(#shadow)" transform="rotate(4 450 330)">
 <rect x="205" y="178" width="495" height="315" rx="70" fill="#d18a3d"/>
 <g fill="#7f3f1e"><circle cx="315" cy="280" r="18"/><circle cx="435" cy="246" r="16"/><circle cx="560" cy="294" r="20"/><circle cx="385" cy="383" r="18"/><circle cx="520" cy="405" r="18"/></g>
 <g fill="#5b7a30"><ellipse cx="272" cy="339" rx="13" ry="32" transform="rotate(20 272 339)"/><ellipse cx="468" cy="305" rx="13" ry="31" transform="rotate(-30 468 305)"/><ellipse cx="623" cy="366" rx="13" ry="31" transform="rotate(20 623 366)"/></g>
 <path d="M260 211 Q445 140 648 212" fill="none" stroke="#f6c87a" stroke-width="22" opacity=".85"/>
</g>
</svg>